<?xml version="1.0" encoding="UTF-8" standalone="no"?>
<svg xmlns="http://www.w3.org/2000/svg" viewBox="0 0 456 456">
  <circle cx="228" cy="200" r="60" fill="white" fill-opacity="0.9"/>
  <path d="M228 260 C228 260 300 190 300 150 C300 110 268 80 228 80 C188 80 156 110 156 150 C156 190 228 260 228 260Z" fill="white" fill-opacity="0.9"/>
  <circle cx="228" cy="150" r="30" fill="#512BD4"/>
  <!-- heat waves -->
  <path d="M148 320 Q188 290 228 320 Q268 350 308 320" stroke="white" stroke-width="8" fill="none" stroke-opacity="0.7"/>
  <path d="M128 350 Q188 320 228 350 Q268 380 328 350" stroke="white" stroke-width="8" fill="none" stroke-opacity="0.5"/>
  <path d="M108 380 Q188 350 228 380 Q268 410 348 380" stroke="white" stroke-width="8" fill="none" stroke-opacity="0.3"/>
</svg>
